<svg width="69" height="22" viewBox="0 0 69 22" fill="none" xmlns="http://www.w3.org/2000/svg">
<path d="M2.24 0.854C2.24 0.658 2.29133 0.503999 2.394 0.391998C2.506 0.270666 2.66 0.21 2.856 0.21H12.152C12.9733 0.21 13.748 0.368666 14.476 0.685999C15.204 0.993999 15.8387 1.42333 16.38 1.974C16.9307 2.51533 17.3647 3.15467 17.682 3.892C17.9993 4.62 18.158 5.404 18.158 6.244C18.158 6.944 18.046 7.59733 17.822 8.204C17.6073 8.80133 17.2993 9.338 16.898 9.814C17.57 10.43 18.102 11.1627 18.494 12.012C18.886 12.8613 19.082 13.762 19.082 14.714C19.082 15.5633 18.9187 16.3707 18.592 17.136C18.2653 17.892 17.822 18.5593 17.262 19.138C16.7113 19.7073 16.0627 20.16 15.316 20.496C14.5787 20.832 13.7993 21 12.978 21H2.856C2.66933 21 2.52 20.9533 2.408 20.86C2.296 20.7573 2.24 20.6033 2.24 20.398V0.854ZM13.524 14.504C13.524 14.224 13.468 13.944 13.356 13.664C13.2533 13.384 13.104 13.1367 12.908 12.922C12.7213 12.698 12.4927 12.516 12.222 12.376C11.9607 12.236 11.676 12.166 11.368 12.166H7.672V16.842H11.368C11.676 16.842 11.9607 16.7767 12.222 16.646C12.4833 16.5153 12.712 16.3427 12.908 16.128C13.104 15.904 13.2533 15.652 13.356 15.372C13.468 15.092 13.524 14.8027 13.524 14.504ZM12.782 6.37C12.782 6.09 12.7307 5.82867 12.628 5.586C12.5253 5.34333 12.3807 5.12867 12.194 4.942C12.0073 4.75533 11.7833 4.61067 11.522 4.508C11.2607 4.396 10.976 4.34 10.668 4.34H7.672V8.4H10.626C10.9433 8.4 11.2327 8.35333 11.494 8.26C11.7647 8.15733 11.9933 8.01733 12.18 7.84C12.3667 7.65333 12.5113 7.43867 12.614 7.196C12.726 6.944 12.782 6.66867 12.782 6.37ZM21.2962 0.854C21.2962 0.658 21.3475 0.503999 21.4502 0.391998C21.5622 0.270666 21.7162 0.21 21.9122 0.21H35.8142C36.0195 0.21 36.1782 0.270666 36.2902 0.391998C36.4022 0.513332 36.4582 0.676665 36.4582 0.881999V4.354C36.4582 4.51267 36.4022 4.66667 36.2902 4.816C36.1782 4.956 36.0149 5.026 35.8002 5.026H26.7282V8.484H33.7282C33.9055 8.484 34.0502 8.526 34.1622 8.61C34.2835 8.694 34.3442 8.834 34.3442 9.03V12.054C34.3442 12.1847 34.2929 12.3107 34.1902 12.432C34.0875 12.5533 33.9382 12.614 33.7422 12.614H26.7282V16.184H36.1362C36.5562 16.184 36.7662 16.3987 36.7662 16.828V20.356C36.7662 20.4493 36.7289 20.5333 36.6542 20.608C36.6169 20.8693 36.4255 21 36.0802 21H21.9122C21.7255 21 21.5762 20.9533 21.4642 20.86C21.3522 20.7573 21.2962 20.6033 21.2962 20.398V0.854Z" fill="#374151"/>
<path d="M44.8527 12.698C44.8527 13.3887 44.9461 13.9767 45.1327 14.462C45.3287 14.938 45.5807 15.33 45.8887 15.638C46.2061 15.9367 46.5701 16.156 46.9807 16.296C47.4007 16.436 47.8347 16.506 48.2827 16.506C48.7494 16.506 49.1881 16.4267 49.5987 16.268C50.0187 16.1 50.3827 15.8573 50.6907 15.54C51.0081 15.2133 51.2554 14.812 51.4327 14.336C51.6194 13.86 51.7127 13.314 51.7127 12.698V0.825999C51.7127 0.657998 51.7687 0.513332 51.8807 0.391998C52.0021 0.270666 52.1607 0.21 52.3567 0.21H56.4447C56.6594 0.21 56.8274 0.275333 56.9487 0.405999C57.0701 0.527332 57.1307 0.667332 57.1307 0.825999V12.628C57.1307 14.2613 56.8881 15.6333 56.4027 16.744C55.9267 17.8547 55.2827 18.7507 54.4707 19.432C53.6587 20.104 52.7161 20.5893 51.6427 20.888C50.5787 21.1773 49.4587 21.322 48.2827 21.322C47.1067 21.322 45.9821 21.1727 44.9087 20.874C43.8354 20.566 42.8927 20.0713 42.0807 19.39C41.2687 18.6993 40.6201 17.8033 40.1347 16.702C39.6587 15.5913 39.4207 14.2333 39.4207 12.628V0.825999C39.4207 0.667332 39.4721 0.527332 39.5747 0.405999C39.6867 0.275333 39.8221 0.21 39.9807 0.21H44.1807C44.3207 0.21 44.4654 0.270666 44.6147 0.391998C44.7734 0.503999 44.8527 0.648666 44.8527 0.825999V12.698Z" fill="#DB2877"/>
<path d="M59.301 8.734C59.287 8.66867 59.2987 8.60567 59.336 8.545C59.3733 8.47967 59.406 8.426 59.434 8.384L62.22 4.457L59.581 0.705C59.5343 0.644333 59.4947 0.579 59.462 0.509C59.4293 0.439 59.4153 0.376 59.42 0.32C59.4293 0.259333 59.4597 0.210333 59.511 0.173C59.567 0.130999 59.658 0.109999 59.784 0.109999H61.982C62.0613 0.109999 62.129 0.144999 62.185 0.214999C62.2457 0.280333 62.3133 0.366666 62.388 0.474L63.725 2.637C63.8137 2.511 63.9163 2.35233 64.033 2.161C64.1497 1.965 64.2687 1.76433 64.39 1.559C64.516 1.349 64.635 1.146 64.747 0.949999C64.8637 0.754 64.964 0.588333 65.048 0.452999C65.1273 0.331666 65.1997 0.245333 65.265 0.194C65.335 0.137999 65.4167 0.109999 65.51 0.109999H67.729C67.785 0.109999 67.8363 0.121666 67.883 0.144999C67.9343 0.168333 67.974 0.200999 68.002 0.243C68.03 0.284999 68.0417 0.333999 68.037 0.39C68.0323 0.446 68.002 0.506666 67.946 0.571999L65.209 4.436L67.932 8.244C67.988 8.32333 68.0347 8.40733 68.072 8.496C68.114 8.58467 68.1327 8.66633 68.128 8.741C68.1233 8.81567 68.0883 8.87867 68.023 8.93C67.9623 8.97667 67.8573 9 67.708 9H65.44C65.23 9 65.0737 8.87867 64.971 8.636L63.725 6.396L62.465 8.664C62.4137 8.76667 62.3483 8.84833 62.269 8.909C62.1897 8.96967 62.1127 9 62.038 9H59.602C59.5367 9 59.4807 8.986 59.434 8.958C59.3873 8.93 59.3477 8.87867 59.315 8.804L59.301 8.734Z" fill="#374151"/>
</svg>
